<svg width="16" height="16" viewBox="0 0 16 16" fill="none" xmlns="http://www.w3.org/2000/svg">
  <path fill="white" fill-rule="evenodd" clip-rule="evenodd" d="M8 0.198C3.58 0.198 0 3.778 0 8.198C0 11.618 2.292 14.518 5.472 15.398C5.872 15.478 6 15.238 6 15.038V13.618C3.96 14.038 3.48 12.858 3.48 12.858C3.14 12.058 2.68 11.838 2.68 11.838C2.04 11.418 2.72 11.418 2.72 11.418C3.44 11.458 3.84 12.118 3.84 12.118C4.48 13.158 5.52 12.858 5.92 12.658C5.98 12.198 6.16 11.878 6.36 11.698C4.64 11.518 2.84 10.858 2.84 7.798C2.84 6.898 3.16 6.158 3.72 5.578C3.64 5.398 3.38 4.638 3.78 3.518C3.78 3.518 4.46 3.318 6 4.398C6.66 4.198 7.34 4.098 8.02 4.098C8.7 4.098 9.38 4.198 10.04 4.398C11.58 3.318 12.26 3.518 12.26 3.518C12.66 4.638 12.4 5.398 12.32 5.578C12.88 6.158 13.2 6.898 13.2 7.798C13.2 10.878 11.4 11.518 9.68 11.698C9.92 11.898 10.12 12.298 10.12 12.918V15.038C10.12 15.238 10.24 15.478 10.64 15.398C13.808 14.518 16 11.618 16 8.198C16 3.778 12.42 0.198 8 0.198Z"/>
</svg>
