<svg width="16" height="16" viewBox="0 0 24 24" fill="none" xmlns="http://www.w3.org/2000/svg">
  <path fill="white" d="M23.643 4.937a9.471 9.471 0 01-2.828.797 4.936 4.936 0 002.165-2.723 9.685 9.685 0 01-3.127 1.195 4.92 4.92 0 00-8.384 4.482A13.969 13.969 0 011.67 3.149a4.92 4.92 0 001.523 6.573 4.903 4.903 0 01-2.229-.616v.062a4.923 4.923 0 003.946 4.827 4.897 4.897 0 01-2.224.085 4.925 4.925 0 004.6 3.417A9.867 9.867 0 010 21.54 13.945 13.945 0 007.548 24c9.058 0 14.015-7.496 14.015-13.985 0-.21-.005-.423-.014-.634a9.935 9.935 0 002.448-2.548l.001-.003z"/>
</svg>
